<svg width="53" height="53" viewBox="0 0 53 53" fill="none" xmlns="http://www.w3.org/2000/svg">
<path d="M48.0781 32.7942C47.036 32.7942 46.0691 33.1236 45.2725 33.6833L37.0814 26.4259C37.5376 25.673 37.801 24.7888 37.801 23.8434C37.801 21.1052 35.5932 18.8779 32.8791 18.8779C30.1651 18.8779 27.9573 21.105 27.9573 23.8434C27.9573 24.601 28.1269 25.319 28.4288 25.962L23.8121 30.7258C23.1572 30.4001 22.4211 30.2162 21.6427 30.2162C20.548 30.2162 19.536 30.579 18.7177 31.1909L8.23079 18.9116C9.22016 18.0028 9.8421 16.6935 9.8421 15.2402C9.8421 12.502 7.63427 10.2747 4.92024 10.2747C2.20783 10.2748 0 12.502 0 15.2402C0 17.9785 2.20783 20.2058 4.92024 20.2058C5.59583 20.2058 6.23994 20.0675 6.82662 19.818L17.5697 32.3972C17.0344 33.1917 16.7211 34.1503 16.7211 35.1815C16.7211 37.9199 18.9289 40.1471 21.6429 40.1471C24.357 40.1471 26.5648 37.9199 26.5648 35.1815C26.5648 33.8332 26.0287 32.6094 25.1613 31.7138L29.394 27.3461C30.2857 28.2491 31.5188 28.8089 32.8793 28.8089C34.0627 28.8089 35.1496 28.3852 35.9994 27.6806L44.0925 34.8512C43.5043 35.6692 43.1563 36.674 43.1563 37.7597C43.1563 40.498 45.3641 42.7253 48.0781 42.7253C50.7922 42.7253 53 40.4981 53 37.7597C53 35.0214 50.7922 32.7942 48.0781 32.7942ZM1.6563 15.2402C1.6563 13.4157 3.12008 11.931 4.92024 11.931C6.72051 11.931 8.1858 13.4158 8.1858 15.2402C8.1858 17.0646 6.7204 18.5495 4.92024 18.5495C3.12008 18.5496 1.6563 17.0647 1.6563 15.2402ZM21.6428 38.4909C19.8427 38.4909 18.3773 37.006 18.3773 35.1816C18.3773 33.3572 19.8427 31.8724 21.6428 31.8724C23.4431 31.8724 24.9084 33.3572 24.9084 35.1816C24.9085 37.006 23.4431 38.4909 21.6428 38.4909ZM32.8791 27.1527C31.079 27.1527 29.6136 25.6679 29.6136 23.8434C29.6136 22.0189 31.079 20.5342 32.8791 20.5342C34.6793 20.5342 36.1447 22.0189 36.1447 23.8434C36.1447 25.6679 34.6793 27.1527 32.8791 27.1527ZM48.0781 41.0691C46.278 41.0691 44.8126 39.5842 44.8126 37.7598C44.8126 35.9353 46.278 34.4505 48.0781 34.4505C49.8783 34.4505 51.3437 35.9354 51.3437 37.7598C51.3438 39.5842 49.8784 41.0691 48.0781 41.0691Z" fill="#72E8CC"/>
</svg>
