<svg width="59" height="59" viewBox="0 0 59 59" fill="none" xmlns="http://www.w3.org/2000/svg">
<path d="M15.4062 14H14V58.989H59V57.5827H15.4062V14Z" fill="#72E8CC"/>
<path d="M24.8065 47.6425C26.7936 47.6425 28.41 46.0247 28.41 44.0376C28.41 43.2899 28.1811 42.5949 27.7898 42.0186L33.371 37.1251C33.9814 37.5999 34.7472 37.8838 35.5785 37.8838C36.532 37.8838 37.3998 37.5107 38.0453 36.9036L40.8832 39.8002C40.2969 40.4417 39.9386 41.2949 39.9386 42.2303C39.9386 44.2174 41.555 45.8352 43.5422 45.8352C45.5293 45.8352 47.1471 44.2174 47.1471 42.2303C47.1471 41.5164 46.9375 40.8508 46.5777 40.2902L54.0787 31.6009C54.4868 31.7616 54.9305 31.8509 55.395 31.8509C57.3822 31.8509 58.9999 30.2345 58.9999 28.2474C58.9999 26.2602 57.3822 24.6425 55.395 24.6425C53.4079 24.6425 51.7915 26.2602 51.7915 28.2474C51.7915 29.2592 52.2111 30.1742 52.8847 30.8293L45.5972 39.2713C45.0138 38.8647 44.3054 38.6253 43.5422 38.6253C43.0018 38.6253 42.4892 38.7458 42.0287 38.9599L38.873 35.739C39.0718 35.2923 39.1834 34.7984 39.1834 34.2788C39.1834 32.2917 37.5656 30.6753 35.5785 30.6753C33.5913 30.6753 31.9749 32.2917 31.9749 34.2788C31.9749 34.9275 32.1481 35.5363 32.4493 36.0629L26.7851 41.0279C26.2167 40.6529 25.5368 40.434 24.8064 40.434C22.8192 40.434 21.2015 42.0503 21.2015 44.0375C21.2016 46.0247 22.8192 47.6425 24.8065 47.6425ZM55.3951 26.0489C56.6078 26.0489 57.5938 27.0349 57.5938 28.2475C57.5938 29.4587 56.6078 30.4448 55.3951 30.4448C54.1839 30.4448 53.1978 29.4587 53.1978 28.2475C53.1978 27.0349 54.1838 26.0489 55.3951 26.0489ZM45.7408 42.2303C45.7408 43.4429 44.7549 44.4289 43.5422 44.4289C42.331 44.4289 41.3449 43.4429 41.3449 42.2303C41.3449 41.0176 42.3309 40.0316 43.5422 40.0316C44.7549 40.0317 45.7408 41.0177 45.7408 42.2303ZM35.5785 32.0817C36.7911 32.0817 37.7772 33.0677 37.7772 34.279C37.7772 35.4916 36.7912 36.4776 35.5785 36.4776C34.3673 36.4776 33.3812 35.4916 33.3812 34.279C33.3813 33.0677 34.3673 32.0817 35.5785 32.0817ZM24.8065 41.8403C26.0177 41.8403 27.0038 42.8264 27.0038 44.0376C27.0038 45.2502 26.0178 46.2363 24.8065 46.2363C23.5939 46.2363 22.6078 45.2503 22.6078 44.0376C22.6078 42.8264 23.5938 41.8403 24.8065 41.8403Z" fill="#72E8CC"/>
</svg>
