<svg width="35" height="35" viewBox="0 0 35 35" fill="none" xmlns="http://www.w3.org/2000/svg">
<path d="M18.4098 6.51563V9.05256C19.9791 9.10492 21.0515 9.52292 21.8099 9.96806L21.1561 11.6943C20.6064 11.3801 19.5348 10.8049 17.861 10.8049C15.8468 10.8049 15.0884 12.0075 15.0884 13.0538C15.0884 14.4145 16.0561 15.0942 18.3312 16.0359C21.0253 17.1338 22.385 18.4943 22.385 20.8218C22.385 22.8874 20.9468 24.8231 18.2527 25.2681V27.9876H16.6051V25.3458C15.0884 25.3206 13.5191 24.8493 12.6037 24.1956L13.2312 22.4433C14.1728 23.0708 15.5325 23.5683 16.9976 23.5683C18.854 23.5683 20.1099 22.4956 20.1099 21.0051C20.1099 19.5661 19.0895 18.6767 17.1549 17.8921C14.4871 16.8466 12.8392 15.6432 12.8392 13.368C12.8392 11.1968 14.3824 9.54906 16.7883 9.15734V6.51563H18.4098ZM19.5035 5.42184H18.4097H16.7883H15.6946V6.51563V8.28777C13.2665 9.0142 11.7455 10.93 11.7455 13.368C11.7455 16.5217 14.2783 17.9395 16.7558 18.9104C18.8405 19.756 19.0162 20.4351 19.0162 21.005C19.0162 21.8976 18.2239 22.4744 16.9977 22.4744C15.9034 22.4744 14.7224 22.1225 13.838 21.533L12.6735 20.7568L12.2016 22.0743L11.5741 23.8267L11.2953 24.6051L11.9683 25.0856C12.862 25.7239 14.1574 26.1818 15.5115 26.3593V27.9873V29.0811H16.6052H18.2528H19.3466V27.9873V26.1348C21.8534 25.3765 23.4789 23.3337 23.4789 20.8216C23.4789 17.3921 20.9485 15.9211 18.7441 15.0228C16.3609 14.0364 16.1823 13.6026 16.1823 13.0536C16.1823 12.3303 16.8098 11.8985 17.8611 11.8985C19.3094 11.8985 20.1901 12.4018 20.6136 12.6438L21.7256 13.2792L22.1793 12.0814L22.833 10.3552L23.1599 9.49192L22.3636 9.02463C21.504 8.52006 20.5611 8.19777 19.5037 8.04913V6.51563V5.42184H19.5035Z" fill="#EEEEEE"/>
<path d="M17.5 1.09379C26.5464 1.09379 33.9063 8.45364 33.9063 17.5C33.9063 26.5464 26.5464 33.9063 17.5 33.9063C8.45357 33.9063 1.09379 26.5464 1.09379 17.5C1.09379 8.45357 8.45357 1.09379 17.5 1.09379ZM17.5 0C7.83514 0 0 7.835 0 17.5C0 27.165 7.83514 35 17.5 35C27.1651 35 35 27.165 35 17.5C35 7.835 27.1651 0 17.5 0Z" fill="#EEEEEE"/>
</svg>
