<svg width="35" height="35" viewBox="0 0 35 35" fill="none" xmlns="http://www.w3.org/2000/svg">
<path d="M21.8654 7.30593L21.0921 6.53257L18.566 9.05871V0H17.4722V9.05871L14.9461 6.53257L14.1728 7.30593L18.0191 11.1522L21.8654 7.30593Z" fill="#EEEEEE"/>
<path d="M20.0239 25.8858H4.375V26.9796H20.0239V25.8858Z" fill="#EEEEEE"/>
<path d="M10.2977 29.0421H4.375V30.1359H10.2977V29.0421Z" fill="#EEEEEE"/>
<path d="M32.2539 12.0911H2.74721C1.23264 12.0911 0 13.3226 0 14.8372V32.2538C0 33.7685 1.23264 35 2.74721 35H32.2539C33.7684 35 35 33.7685 35 32.2538V14.8372C35 13.3226 33.7684 12.0911 32.2539 12.0911ZM2.74721 13.1848H32.2539C33.1649 13.1848 33.9062 13.9261 33.9062 14.8371V16.6006H1.09371V14.8371C1.09371 13.9261 1.835 13.1848 2.74721 13.1848ZM33.9062 17.6944V21.3859H1.09371V17.6944H33.9062V17.6944ZM32.2539 33.9062H2.74721C1.835 33.9062 1.09379 33.1649 1.09379 32.2538V22.4796H33.9063V32.2538C33.9062 33.165 33.165 33.9062 32.2539 33.9062Z" fill="#EEEEEE"/>
</svg>
