<svg width="35" height="35" viewBox="0 0 35 35" fill="none" xmlns="http://www.w3.org/2000/svg">
<path d="M16.9531 2.0935V11.1522H18.0469V2.0935L20.5729 4.61957L21.3463 3.84629L17.5 0L13.6537 3.84629L14.427 4.61957L16.9531 2.0935Z" fill="#EEEEEE"/>
<path d="M20.0229 25.8858H4.375V26.9796H20.0229V25.8858Z" fill="#EEEEEE"/>
<path d="M10.2966 29.0421H4.375V30.1359H10.2966V29.0421Z" fill="#EEEEEE"/>
<path d="M32.2528 12.0911H2.74614C1.2315 12.0911 0 13.3226 0 14.8372V32.2538C0 33.7685 1.2315 35 2.74614 35H32.2528C33.7674 35 35 33.7685 35 32.2538V14.8372C35 13.3226 33.7674 12.0911 32.2528 12.0911ZM2.74614 13.1848H32.2528C33.165 13.1848 33.9062 13.9261 33.9062 14.8371V16.6006H1.09379V14.8371C1.09379 13.9261 1.835 13.1848 2.74614 13.1848ZM33.9063 17.6944V21.3859H1.09379V17.6944H33.9063V17.6944ZM32.2528 33.9062H2.74614C1.83507 33.9062 1.09379 33.1649 1.09379 32.2538V22.4796H33.9063V32.2538C33.9063 33.165 33.165 33.9062 32.2528 33.9062Z" fill="#EEEEEE"/>
</svg>
