<svg width="123" height="19" viewBox="0 0 123 19" fill="none" xmlns="http://www.w3.org/2000/svg">
<path d="M4.125 3.75V8.375H12.225V11.625H4.125V18H0.0750001V0.499999H13.3V3.75H4.125ZM16.0418 0.499999H20.0918V18H16.0418V0.499999ZM40.2949 0.499999V18H36.9699L28.2449 7.375V18H24.2449V0.499999H27.5949L36.2949 11.125V0.499999H40.2949ZM55.9604 14.25H47.8354L46.2854 18H42.1354L49.9354 0.499999H53.9354L61.7604 18H57.5104L55.9604 14.25ZM54.6854 11.175L51.9104 4.475L49.1354 11.175H54.6854ZM79.626 0.499999V18H76.301L67.576 7.375V18H63.576V0.499999H66.926L75.626 11.125V0.499999H79.626ZM92.1414 18.3C90.3581 18.3 88.7414 17.9167 87.2914 17.15C85.8581 16.3667 84.7247 15.2917 83.8914 13.925C83.0747 12.5417 82.6664 10.9833 82.6664 9.25C82.6664 7.51667 83.0747 5.96667 83.8914 4.6C84.7247 3.21667 85.8581 2.14167 87.2914 1.375C88.7414 0.591666 90.3664 0.2 92.1664 0.2C93.6831 0.2 95.0497 0.466666 96.2664 1C97.4997 1.53333 98.5331 2.3 99.3664 3.3L96.7664 5.7C95.5831 4.33333 94.1164 3.65 92.3664 3.65C91.2831 3.65 90.3164 3.89167 89.4664 4.375C88.6164 4.84167 87.9497 5.5 87.4664 6.35C86.9997 7.2 86.7664 8.16667 86.7664 9.25C86.7664 10.3333 86.9997 11.3 87.4664 12.15C87.9497 13 88.6164 13.6667 89.4664 14.15C90.3164 14.6167 91.2831 14.85 92.3664 14.85C94.1164 14.85 95.5831 14.1583 96.7664 12.775L99.3664 15.175C98.5331 16.1917 97.4997 16.9667 96.2664 17.5C95.0331 18.0333 93.6581 18.3 92.1414 18.3ZM115.651 14.75V18H102.101V0.499999H115.326V3.75H106.126V7.55H114.251V10.7H106.126V14.75H115.651ZM120.318 18.2C119.635 18.2 119.06 17.9667 118.593 17.5C118.126 17.0333 117.893 16.45 117.893 15.75C117.893 15.0333 118.126 14.4583 118.593 14.025C119.06 13.575 119.635 13.35 120.318 13.35C121.001 13.35 121.576 13.575 122.043 14.025C122.51 14.4583 122.743 15.0333 122.743 15.75C122.743 16.45 122.51 17.0333 122.043 17.5C121.576 17.9667 121.001 18.2 120.318 18.2Z" fill="#393E46"/>
</svg>
